<?xml version="1.0"?>
<svg xmlns="http://www.w3.org/2000/svg" xmlns:xlink="http://www.w3.org/1999/xlink" version="1.1" id="Capa_1" x="0px" y="0px" viewBox="0 0 404 404" style="enable-background:new 0 0 404 404;" xml:space="preserve" width="512px" height="512px"><g><path d="M400,116.5H154.5c-2.209,0-4,1.791-4,4v4h-24.7c-2.209,0-4,1.791-4,4H4c-1.583,0-3.017,0.934-3.658,2.382  c-0.641,1.447-0.367,3.137,0.697,4.309c32.328,35.574,76.565,56.479,124.556,58.865c2.908,0.148,5.927,0.225,8.975,0.225h20.73  c7.448,0,14.025,4.57,16.355,11.335c0.098,0.293,0.236,0.722,0.316,1.078c2.086,9.112-0.261,19.061-6.278,26.61  C159.682,240.847,150.991,245,141.22,245c-10.071,0-19.542,3.925-26.668,11.053c-7.127,7.126-11.052,16.597-11.052,26.668v0.779  c0,2.209,1.791,4,4,4H160c2.209,0,4-1.791,4-4v-5h107v5c0,2.209,1.791,4,4,4h49c2.209,0,4-1.791,4-4v-0.779  C328,261.922,311.079,245,290.28,245c-19.457,0-31.5-16.413-31.5-31.619c0-7.563,2.766-14.625,8.002-20.424  c0.454-0.504,0.866-0.926,1.236-1.264c17.543-16.144,39.326-26.162,62.993-28.972l69.46-8.25c2.013-0.238,3.528-1.945,3.528-3.972  v-30C404,118.291,402.209,116.5,400,116.5z M396,129.5H158.6v-5H396V129.5z M150.6,132.5v53.78h-16.03  c-1.605,0-3.196-0.027-4.77-0.07V132.5H150.6z M121.8,136.5v49.304c-41.165-3.03-79.215-20.364-108.432-49.304H121.8z   M330.068,154.778c-25.348,3.009-48.678,13.738-67.455,31.018c-0.558,0.51-1.139,1.101-1.772,1.804  c-6.582,7.289-10.061,16.204-10.061,25.781c0,19.054,15.102,39.619,39.5,39.619c15.299,0,27.935,11.621,29.546,26.5H279v-5  c0-1.883-1.306-3.452-3.059-3.877c0-0.001,0.002-0.011,0.002-0.011s-8.731-2.132-17.935-6.116  c-11.355-4.916-18.593-10.572-20.378-15.927c-0.699-2.097-2.961-3.23-5.06-2.53c-2.096,0.699-3.228,2.964-2.53,5.06  c2.398,7.191,9.744,13.709,21.838,19.401h-68.754c12.093-5.693,19.44-12.21,21.838-19.401c0.698-2.096-0.434-4.36-2.53-5.06  c-2.095-0.696-4.361,0.434-5.06,2.53c-1.779,5.338-8.982,10.979-20.279,15.884c-9.208,3.998-18.034,6.159-18.034,6.159  s0.001,0.009,0.001,0.01c-1.753,0.425-3.06,1.994-3.06,3.877v5h-44.329c0.721-6.717,3.688-12.942,8.538-17.791  c5.615-5.616,13.077-8.709,21.011-8.709c12.078,0,23.278-5.361,30.729-14.71c7.521-9.438,10.445-21.917,7.826-33.357  c-0.119-0.535-0.282-1.105-0.542-1.885c-3.099-8.998-11.164-15.33-20.632-16.54V137.5H396v9.447L330.068,154.778z" data-original="#000000" class="active-path" data-old_color="#000000" fill="#FFFFFF"/></g> </svg>
